<?xml version="1.0" encoding="iso-8859-1"?>
<!-- Generator: Adobe Illustrator 19.0.0, SVG Export Plug-In . SVG Version: 6.00 Build 0)  -->
<svg version="1.1" id="Layer_1" xmlns="http://www.w3.org/2000/svg" xmlns:xlink="http://www.w3.org/1999/xlink" x="0px" y="0px"
	 viewBox="0 0 512 512" style="enable-background:new 0 0 512 512;" xml:space="preserve">
<g>
	<path style="fill:#7AB9E8;" d="M46.545,155.152C20.88,155.152,0,134.271,0,108.606s20.88-46.545,46.545-46.545
		s46.545,20.88,46.545,46.545S72.211,155.152,46.545,155.152z M46.544,108.577l0.002,0.029
		C46.545,108.586,46.544,108.577,46.544,108.577z"/>
	<path style="fill:#7AB9E8;" d="M46.545,449.939C20.88,449.939,0,429.059,0,403.394c0-25.665,20.88-46.545,46.545-46.545
		s46.545,20.88,46.545,46.545C93.091,429.059,72.211,449.939,46.545,449.939z M46.544,403.364l0.002,0.029
		C46.545,403.374,46.544,403.364,46.544,403.364z"/>
	<path style="fill:#7AB9E8;" d="M46.545,302.545C20.88,302.545,0,281.665,0,256s20.88-46.545,46.545-46.545
		S93.091,230.335,93.091,256S72.211,302.545,46.545,302.545z M46.544,255.971L46.545,256
		C46.545,255.98,46.544,255.971,46.544,255.971z"/>
</g>
<g>
	<rect x="131.879" y="232.727" style="fill:#88888F;" width="380.121" height="46.545"/>
	<rect x="131.879" y="380.121" style="fill:#88888F;" width="380.121" height="46.545"/>
	<rect x="131.879" y="85.333" style="fill:#88888F;" width="380.121" height="46.545"/>
</g>
<g>
	<rect x="318.061" y="232.727" style="fill:#56545A;" width="193.939" height="46.545"/>
	<rect x="318.061" y="380.121" style="fill:#56545A;" width="193.939" height="46.545"/>
	<rect x="318.061" y="85.333" style="fill:#56545A;" width="193.939" height="46.545"/>
</g>
<g>
	<path style="fill:#579ADF;" d="M46.545,209.455v93.091c25.665,0,46.545-20.88,46.545-46.545S72.211,209.455,46.545,209.455z"/>
	<path style="fill:#579ADF;" d="M46.545,155.152c25.665,0,46.545-20.88,46.545-46.545s-20.88-46.545-46.545-46.545V155.152z"/>
	<path style="fill:#579ADF;" d="M46.545,356.848v93.091c25.665,0,46.545-20.88,46.545-46.545
		C93.091,377.729,72.211,356.848,46.545,356.848z"/>
</g>
<g>
</g>
<g>
</g>
<g>
</g>
<g>
</g>
<g>
</g>
<g>
</g>
<g>
</g>
<g>
</g>
<g>
</g>
<g>
</g>
<g>
</g>
<g>
</g>
<g>
</g>
<g>
</g>
<g>
</g>
</svg>
